<svg xmlns="http://www.w3.org/2000/svg" xml:space="preserve" id="레이어_1" x="0" y="0" version="1.1" viewBox="0 0 217.8 30"><style>.st0{fill:#002f87}</style><path d="M190 .4v2.5h-3.4v-2h-3.7V4h-4.4V.9h-3.7v8.5c0 1.1.9 2.1 2.1 2.1h9.8V9.8h3.4v2.5h3.7V.4zm-7.1 8.5h-4.4V6.5h4.4zm7.1-1.6h-3.4v-2h3.4zM132.8 14.6H129v5c0 1.1.9 2.1 2.1 2.1h13.2v-2.5h-11.6zM204.8 19.2v-3.8h-3.7v4.2c0 1.1.9 2.1 2.1 2.1h14.6v-2.5zM158.3.9V4h-4.4V.9h-3.7v8.5c0 1.1.9 2.1 2.1 2.1h9.8V.9zm0 8h-4.4V6.5h4.4zM143.5.4h-3.7V16h3.7V7.5h3.6V5h-3.6zM168.6.4h-3.7v11.9h3.7V6.4h3.6V3.9h-3.6zM208.5 12.9v2.5h5.1V17h3.8V.4h-3.8v12.5zM136.8 8c0-1.4-.7-2.8-1.9-3.7h2.6V1.8h-4.8V0H129v1.8h-4.8v2.5h2.6c-1.1.9-1.8 2.3-1.8 3.7 0 2.8 2.6 5.1 5.9 5.1 3.3.1 5.9-2.2 5.9-5.1m-8.2 0c0-1.4 1-2.6 2.3-2.6s2.3 1.1 2.3 2.6-1 2.6-2.3 2.6-2.3-1.2-2.3-2.6M161.9 12.3c-3.6 0-6.5 2.4-6.5 5.3s2.9 5.3 6.5 5.3 6.5-2.4 6.5-5.3-2.9-5.3-6.5-5.3m0 7.9c-1.5 0-2.8-1.2-2.8-2.7s1.2-2.7 2.8-2.7c1.5 0 2.8 1.2 2.8 2.7s-1.3 2.7-2.8 2.7M186.9 12.3c-3.6 0-6.5 2.4-6.5 5.3s2.9 5.3 6.5 5.3 6.5-2.4 6.5-5.3-2.9-5.3-6.5-5.3m0 7.9c-1.5 0-2.8-1.2-2.8-2.7s1.2-2.7 2.8-2.7 2.7 1.2 2.7 2.7c.1 1.5-1.1 2.7-2.7 2.7M204.1 9.4c3.1 0 5.7-2.1 5.7-4.7S207.3 0 204.1 0c-3.1 0-5.6 2.1-5.6 4.7s2.5 4.7 5.6 4.7m0-6.9c1.1 0 2 1 2 2.2s-.9 2.2-2 2.2-2-1-2-2.2.9-2.2 2-2.2" class="st0"/><path d="M202.3 14.4h3.7v-2.1h6.1V9.8h-15.2v2.5h5.4zM60.8 7.9V4.2h6.5V.4H48.4v3.8h6.5v3.7c0 5.7-2.9 9.7-7.5 10.6v4.1c4.2-.6 7.8-2.7 10.3-6.2l.2-.3.2.3c2.5 3.5 6 5.6 10.3 6.2v-4.1c-4.7-.9-7.6-4.8-7.6-10.6M72 27.9V.4h5.5v5.9h5.4v3.8h-5.4v16c0 1-.8 1.8-1.8 1.8zM118.3 12.8V.4h-4.8V4h-3.9V.4h-4.8v11l-.3-.1c-4.2-1.1-6.4-4.3-6.4-9.2V.4h-5.9v1.8c0 4.9-2.3 8.1-6.6 9.2v4c3.8-.6 7.1-2.5 9.3-5.5l.2-.3.2.3c1.7 2.3 4.1 4 6.8 4.9l.4.1-.4.3c-2.2 1.6-3.4 3.9-3.4 6.3 0 4.6 4.4 8.4 9.8 8.4 2.6 0 5.1-.9 6.9-2.5s2.9-3.7 2.8-5.9c0-2.6-1.4-5-3.8-6.6l-.7-.4h2.6c1.2.1 2-.7 2-1.7m-9.8 13.6c-2.6 0-4.7-2.1-4.7-4.8s2.1-4.8 4.7-4.8 4.7 2.1 4.7 4.8-2.1 4.8-4.7 4.8m5-12-.3-.1c-1-.5-2.2-.8-3.4-.9h-.2V7.8h3.9zM9.4 21.8v-8.4c-.3.2-.7.4-1.1.5s-1 .2-1.6.2H2.4c-.7 0-1.3-.2-1.7-.6s-.6-1-.6-1.6V1.3h7.7v2H3.4v8.9h3.5c.6 0 1.1-.1 1.5-.1.4-.1.8-.2 1.1-.3V.6h3.3v5.8h2.1V.6h3.3v21.2h-3.3V8.3h-2.1v13.5zM22.1 1.2h11.3v2h-3.9v1.3c0 2 .5 3.6 1.6 4.8 1.1 1.3 2.3 2 3.7 2.3L33.2 13c-1.1-.1-2.2-.5-3.3-1.3s-1.8-1.6-2.1-2.6c-.3.9-1 1.8-2.1 2.5-1.1.8-2.2 1.2-3.3 1.3l-1.7-1.5c1.4-.3 2.7-1 3.7-2.3C25.5 8 26 6.4 26 4.4V3.2h-3.9zM29 19.8h11.4v2H27.9c-.7 0-1.3-.2-1.7-.6s-.7-1-.7-1.7v-4.8H29zM39.6.6v15.7h-3.5V7.5h-4v-2h4V.6z" class="st0"/></svg>