<svg xmlns="http://www.w3.org/2000/svg" width="236" height="49" viewBox="0 0 236 49" fill="none"><g id="Group"><path id="Vector" d="M138.253 33.7312C138.253 35.3187 135.528 36.4687 125.762 36.4687C115.996 36.4687 113.265 35.3187 113.265 33.7312C113.265 32.1437 115.996 30.9887 125.757 30.9887C135.518 30.9887 138.249 32.1486 138.249 33.7312M146.711 25.6562V22.6975H104.798V25.6562H122.495V28.0104C109.462 28.3348 105.698 30.6398 105.698 33.7312C105.698 37.0634 110.072 39.4913 125.752 39.4913C141.432 39.4913 145.806 37.0634 145.806 33.7312C145.806 30.6398 142.042 28.3348 129.004 28.0104V25.6513H146.706L146.711 25.6562ZM125.752 13.4627C134.539 13.4627 136.989 14.3916 136.989 15.6743C136.989 16.9571 134.544 17.886 125.752 17.886C116.96 17.886 114.51 16.9522 114.51 15.6743C114.51 14.3965 116.965 13.4627 125.752 13.4627ZM125.752 20.6677C140.32 20.6677 144.384 18.5642 144.384 15.6694C144.384 12.7746 140.32 10.6662 125.752 10.6662C111.184 10.6662 107.12 12.7697 107.12 15.6694C107.12 18.5691 111.179 20.6677 125.752 20.6677ZM224.239 11.3936L224.229 27.8089H230.286V23.7296H235.816V20.3778H230.286V17.5518H235.816V14.3965H230.286L230.296 11.3936H224.239ZM193.972 29.0523V32.3452H222.129C222.129 32.3452 224.431 32.2715 224.5 34.7043C224.564 37.1371 224.5 38.7148 224.5 38.7148H230.684V33.5886C230.684 33.5886 230.837 29.0474 225.769 29.0474H193.967L193.972 29.0523ZM199.595 18.8886C199.595 16.0626 202.887 13.7772 206.951 13.7772C211.015 13.7772 214.296 16.0626 214.296 18.8886C214.296 21.7146 211.01 24 206.951 24C202.892 24 199.595 21.7097 199.595 18.8886ZM193.047 18.7608C192.791 23.479 198.572 27.1061 206.931 27.1061C215.29 27.1061 220.456 23.592 220.618 18.977C220.81 13.3644 214.488 10.6023 206.946 10.6023C199.403 10.6023 193.377 12.8385 193.047 18.7608ZM165.667 20.5055V23.6608H173.49V38.7148H179.502V11.4968H173.49L173.52 20.5055H165.667ZM182.749 38.7148H188.648V11.4968H182.749V38.7148Z" fill="white"></path><path id="Vector_2" d="M170.203 14.4604V11.5018H149.608V14.4604H157.116C157.116 18.176 155.453 27.3322 148.496 32.7385C148.108 33.0382 147.901 33.7804 148.349 34.3554C148.959 35.0484 149.844 34.5962 150.051 34.5176C150.784 34.2227 154.695 32.6549 159.286 26.0986C159.286 26.0986 159.547 25.3761 160.86 26.2952C160.86 26.2952 164.481 28.3348 163.822 38.7246H169.746C169.746 38.7246 170.144 25.7742 160.929 23.0121C160.929 23.0121 162.567 18.6085 162.828 14.4654H170.203V14.4604ZM59.5733 11.4624V28.1776C59.5733 28.1776 59.4503 34.0998 73.1523 34.3603C73.1523 34.3603 81.8459 34.2227 85.0094 32.9006V38.705H91.0167V23.6855H94.1802V38.705H100.02V11.4575H94.1802V20.7956H91.0167V11.4624H85.0143V26.7228C85.0143 26.7228 85.0143 31.9914 74.5988 31.0674C74.5988 31.0674 67.7502 30.9396 65.5117 27.9121V14.7504H81.9787V11.4575H59.5733V11.4624Z" fill="white"></path><path id="Vector_3" d="M6.14293 31.9079C5.82313 31.7113 5.5919 31.8735 5.50334 31.9718C5.42462 32.0504 5.31146 32.2962 5.50334 32.5911C6.72841 34.5177 8.7997 40.2139 3.7666 48.5051H12.0321C13.2424 42.9612 12.5831 35.8495 6.14293 31.903M24.204 34.8224C23.7268 34.7191 23.3775 35.132 23.776 35.5154C23.776 35.5154 27.6628 38.936 26.8854 48.5051H34.0587C34.0587 48.5051 33.8914 36.9947 24.204 34.8224Z" fill="white"></path><path id="Vector_4" d="M37.6503 22.0538C35.2937 19.7635 32.9469 17.4634 30.6099 15.1583C30.3738 14.9175 28.9716 13.3792 30.3738 11.9195C31.3823 10.8678 32.755 11.4625 33.3011 11.9539C33.8325 12.4503 39.5642 17.6747 39.5642 17.6747C39.9627 14.3032 41.419 13.5168 41.419 13.5168C41.419 13.5168 42.2407 12.9271 42.8015 13.7134C43.2443 14.3425 42.5359 15.2272 42.5359 15.2272C42.9885 15.35 43.082 15.812 43.0131 16.2347C42.9737 16.4853 42.8507 16.7163 42.6736 16.8933C42.5457 17.021 42.4424 17.0702 42.4424 17.0702C42.6343 17.0554 42.7622 17.1537 42.8409 17.2864C42.9147 17.4437 42.9541 17.6207 42.9491 17.7976C42.9491 18.1908 42.8016 18.5741 42.5359 18.869C42.1177 19.3212 41.5125 19.5571 41.5125 19.5571C41.5814 20.889 41.1927 21.5574 40.6318 22.0095C39.269 23.1842 37.9111 22.3044 37.6553 22.0587M31.7907 2.2227C32.3024 2.19813 32.7353 2.5913 32.7599 3.10243C32.7845 3.61357 32.3909 4.04605 31.8793 4.07063C31.8497 4.07063 31.8202 4.07063 31.7956 4.07063C31.284 4.0952 30.851 3.70203 30.8264 3.1909C30.8018 2.67976 31.1954 2.24728 31.7071 2.2227C31.7366 2.2227 31.7661 2.2227 31.7907 2.2227ZM21.1735 32.0258V32.016C21.0456 32.1045 20.8684 32.075 20.7799 31.9472C20.7454 31.898 20.7307 31.844 20.7307 31.7899V17.7239C20.7307 15.9005 19.5105 15.7432 18.9349 15.7432H9.04089C8.31274 15.7432 7.97818 15.4237 7.82566 15.1338C7.78139 15.0502 7.74202 14.9421 7.79122 14.8143C7.84042 14.6816 7.92899 14.6276 8.02738 14.5981L18.0985 11.2511C18.2117 11.2118 18.3543 11.1676 18.5118 11.1233C18.5561 11.1086 18.6348 11.0644 18.7184 11.1233C18.8267 11.1823 18.8168 11.2314 18.8316 11.2904C18.9251 11.659 19.1022 12.2488 19.3482 12.7059C20.5978 14.9568 23.107 15.0748 23.107 15.0748L23.1168 28.5757C23.1168 30.6989 21.8918 31.5442 21.1784 32.0357M16.5782 20.2992H9.35576V18.4414H16.5782V20.2992ZM16.5782 24.8454H9.35576V22.9925H16.5782V24.8454ZM44.1152 20.4614C44.1152 20.4614 46.4275 19.2081 44.8876 16.9965C44.8876 16.9965 46.2357 15.7481 44.986 14.2983C44.986 14.2983 45.8421 12.7649 44.6022 11.7033C44.6022 11.7033 46.3636 8.88218 44.312 7.72722C43.8003 7.43233 43.1951 7.35371 42.6244 7.50115C42.3243 7.58471 42.0488 7.71249 41.7733 7.87468C41.2419 8.2138 40.8779 8.63647 40.5335 9.16235C40.1153 9.78161 39.4806 10.8481 38.5261 12.6666L34.8853 9.39825C34.6295 9.16234 34.9346 8.72985 35.0821 8.5136C35.3281 8.13516 35.6824 7.86485 36.0661 7.62402C36.4696 7.37337 36.9173 7.1817 37.3699 7.04409C37.7045 6.93596 38.4818 6.79341 38.472 6.31668C38.4671 6.01196 38.1128 5.90385 37.8717 5.86945C37.675 5.83996 37.4733 5.82031 37.2715 5.81539C37.1338 5.80556 36.9124 5.84486 36.8238 5.69741C36.7697 5.60403 36.75 5.49594 36.7746 5.38781C36.8041 5.25511 36.9812 5.19613 37.1042 5.16664C37.1042 5.16664 38.413 4.85209 38.3441 4.54246C38.3441 4.54246 38.3441 4.35078 37.3847 2.41927C37.3847 2.41927 37.1879 2.05559 36.3761 2.73875C36.2383 2.85179 36.1399 2.98449 35.9628 3.02381C35.5643 3.10245 35.2298 2.69942 34.969 2.4586C34.6394 2.13423 34.2703 1.859 33.8669 1.63292C33.306 1.33804 32.6911 1.17094 32.0613 1.14637C31.9629 1.13654 31.8547 1.13653 31.7513 1.13653C31.2347 1.14636 30.6591 1.22992 30.177 1.42159C29.9802 1.51006 29.7538 1.49531 29.5669 1.38227C29.4094 1.28397 29.2766 1.13654 29.1044 1.0579C28.8978 0.959609 28.6715 0.905518 28.4402 0.905518C27.6284 0.905518 26.9642 1.5592 26.9593 2.37014V2.37995C26.9593 2.43892 26.9642 2.48808 26.9692 2.53722C26.9938 2.77313 27.0774 2.99922 27.2053 3.19582C27.225 3.23022 27.2545 3.26954 27.2791 3.29412C27.3234 3.34818 27.3775 3.40714 27.3775 3.49069C27.3775 3.55458 27.3578 3.60373 27.3086 3.64305C26.7921 4.17384 25.749 5.18629 24.7945 8.10566C24.7945 8.10566 20.2879 4.46383 16.3224 5.87437C16.0616 5.96283 15.8058 6.07588 15.5598 6.21349C15.5598 6.21349 17.5278 7.37828 18.2461 8.54308C18.3002 8.62663 18.2855 8.69543 18.2559 8.74458C18.2313 8.79372 18.192 8.84779 18.0591 8.87236L9.81824 10.16C9.74936 10.1846 9.70015 10.16 9.67555 10.1109C9.65587 10.0568 9.69032 10.0077 9.71492 9.99294L16.9522 3.90846C16.9522 3.90846 17.2326 3.67745 17.4491 3.33341C17.8082 2.85668 17.7098 2.18338 17.2326 1.82461C17.085 1.71157 16.9079 1.64274 16.7258 1.61816C16.6668 1.60342 16.6078 1.59359 16.5487 1.58868C16.1453 1.53953 15.7763 1.54938 15.7763 1.54938H9.33608C9.33608 1.54938 9.19832 1.55427 9.03104 1.58868C8.81948 1.64274 8.6719 1.8295 8.6719 2.05067C8.6719 2.22268 8.78504 2.37012 8.93756 2.50774C9.26228 2.80754 9.53289 2.94515 9.54765 3.4268C9.55749 3.9281 9.2918 4.39993 9.05073 4.8226L5.90689 10.3124C5.85769 10.391 5.78388 10.5483 5.63628 10.6712C5.48377 10.7941 5.32141 10.8137 5.10001 10.853C3.87003 11.025 0.952502 11.428 0.721265 11.4575C0.381789 11.4969 0.258789 11.7131 0.258789 11.9539C0.258789 12.1604 0.38178 12.3373 0.573658 12.411C0.780295 12.4847 0.942652 12.5437 1.21817 12.6469C1.21817 12.6469 1.9906 14.947 2.1136 15.2763C2.23168 15.5909 2.75811 16.3772 4.1111 15.93C4.62277 15.7629 5.33617 15.8906 5.33617 16.8539V29.6373C5.33617 29.6667 5.33617 29.7356 5.37553 29.7994C5.41489 29.8584 5.49361 29.9026 5.56249 29.9125C6.12828 30.0157 7.68298 30.3696 9.13928 31.2345C9.20324 31.264 9.23768 31.2837 9.2918 31.2493C9.34592 31.2198 9.341 31.1658 9.341 31.1264V27.5436H16.4897L16.4798 29.3817C16.4798 29.3817 16.4798 31.2051 14.5414 31.2051H10.3693C10.1872 31.2051 10.0544 31.3279 10.0396 31.4704C10.0101 31.6965 10.1528 31.8096 10.384 31.9521C10.384 31.9521 18.8513 36.857 16.6373 48.5296H23.7269C23.7269 48.5296 24.2976 41.1673 18.8513 36.862C18.684 36.7342 18.6249 36.6261 18.62 36.5572C18.6102 36.4049 18.7725 36.3656 18.8808 36.3459C18.9398 36.3312 18.9841 36.3164 19.0333 36.3017C20.2436 35.9675 25.8277 34.0999 25.8917 27.8827L25.9261 16.1806C25.9901 13.8363 26.2361 13.4038 26.6986 13.4038C26.9987 13.4038 27.1856 13.8756 27.3677 14.5784C27.7268 15.9398 28.2533 17.1144 29.2668 18.1121C29.9359 18.7707 30.605 19.4293 31.279 20.0829C31.279 20.0829 34.8608 23.5872 35.1166 23.8722C35.6381 24.4473 37.7832 27.922 32.3565 31.0625C32.0564 31.2296 31.7071 31.3132 31.5546 31.6474C31.3627 32.0553 31.8202 32.4632 32.0662 32.7286C32.7895 33.5052 33.3257 34.3407 33.8325 35.2597C35.3774 38.0857 37.5667 43.5215 36.5089 48.5345H44.7449C44.7449 48.5345 45.5075 37.0684 35.1117 33.0874C34.9592 33.0285 34.8312 32.9007 34.8952 32.7237C34.9591 32.5517 35.1363 32.478 35.2839 32.3797C36.1104 31.8194 39.1657 29.48 38.5851 25.9807C38.5851 25.9807 44.0266 26.1478 44.125 20.4663" fill="white"></path></g></svg>